<?xml version="1.0" encoding="UTF-8" standalone="no"?>
<svg
   height="16px"
   viewBox="0 0 16 16"
   width="16px"
   version="1.1"
   id="svg1"
   sodipodi:docname="window-close.svg"
   inkscape:version="1.4.2 (ebf0e940d0, 2025-05-08)"
   xmlns:inkscape="http://www.inkscape.org/namespaces/inkscape"
   xmlns:sodipodi="http://sodipodi.sourceforge.net/DTD/sodipodi-0.dtd"
   xmlns="http://www.w3.org/2000/svg"
   xmlns:svg="http://www.w3.org/2000/svg">
  <defs
     id="defs1" />
  <sodipodi:namedview
     id="namedview1"
     pagecolor="#505050"
     bordercolor="#eeeeee"
     borderopacity="1"
     inkscape:showpageshadow="0"
     inkscape:pageopacity="0"
     inkscape:pagecheckerboard="0"
     inkscape:deskcolor="#505050"
     inkscape:zoom="37.75"
     inkscape:cx="8"
     inkscape:cy="8"
     inkscape:window-width="1536"
     inkscape:window-height="807"
     inkscape:window-x="0"
     inkscape:window-y="0"
     inkscape:window-maximized="1"
     inkscape:current-layer="svg1" />
  <path
     d="m 4 4 h 1 h 0.03125 c 0.253906 0.011719 0.511719 0.128906 0.6875 0.3125 l 2.28125 2.28125 l 2.3125 -2.28125 c 0.265625 -0.230469 0.445312 -0.304688 0.6875 -0.3125 h 1 v 1 c 0 0.285156 -0.035156 0.550781 -0.25 0.75 l -2.28125 2.28125 l 2.25 2.25 c 0.1875 0.1875 0.28125 0.453125 0.28125 0.71875 v 1 h -1 c -0.265625 0 -0.53125 -0.09375 -0.71875 -0.28125 l -2.28125 -2.28125 l -2.28125 2.28125 c -0.1875 0.1875 -0.453125 0.28125 -0.71875 0.28125 h -1 v -1 c 0 -0.265625 0.09375 -0.53125 0.28125 -0.71875 l 2.28125 -2.25 l -2.28125 -2.28125 c -0.210938 -0.195312 -0.304688 -0.46875 -0.28125 -0.75 z m 0 0"
     fill="#2e3436"
     id="path1"
     style="fill:#ffffff;fill-opacity:1" />
</svg>
